{"title":"Jacob.2011.BRRip XViD juggs","uid":8384467,"size":741861567,"categoryP":"video","categoryS":"movies","magnet":"?xt=urn:btih:431c220d22348c53412134c522ce3882cab20023&amp;dn=Jacob.2011.BRRip+XViD+juggs&amp;tr=udp%3A%2F%2Ftracker.openbittorrent.com%3A80&amp;tr=udp%3A%2F%2Fopen.demonii.com%3A1337&amp;tr=udp%3A%2F%2Ftracker.coppersurfer.tk%3A6969&amp;tr=udp%3A%2F%2Fexodus.desync.com%3A6969","seeders":0,"leechers":1,"uploader":"juggs99","files":3,"time":1366246954,"description":"Source : ROVERS(Thanks)\n &lt;a href=&quot;\nhttp://www.imdb.com/title/tt1801063&quot; rel=&quot;nofollow&quot; target=&quot;_NEW&quot;&gt;\nhttp://www.imdb.com/title/tt1801063&lt;/a&gt;\n\n\nFormat                                   : AVI\nFormat/Info                              : Audio Video Interleave\nFile size                                : 700 MiB\nDuration                                 : 1h 31mn\nOverall bit rate                         : 1 065 Kbps\nWriting library                          : VirtualDub build 32842/release\n\nVideo\nID                                       : 0\nFormat                                   : MPEG-4 Visual\nFormat profile                           : Advanced Simple@L5\nFormat settings, BVOP                    : 2\nFormat settings, QPel                    : No\nFormat settings, GMC                     : No warppoints\nFormat settings, Matrix                  : Default (H.263)\nMuxing mode                              : Packed bitstream\nCodec ID                                 : XVID\nCodec ID/Hint                            : XviD\nDuration                                 : 1h 31mn\nBit rate                                 : 928 Kbps\nWidth                                    : 640 pixels\nHeight                                   : 272 pixels\nDisplay aspect ratio                     : 2.35:1\nFrame rate                               : 23.976 fps\nColor space                              : YUV\nChroma subsampling                       : 4:2:0\nBit depth                                : 8 bits\nScan type                                : Progressive\nCompression mode                         : Lossy\nBits/(Pixel*Frame)                       : 0.222\nStream size                              : 610 MiB (87%)\nWriting library                          : XviD 64\n\nAudio\nID                                       : 1\nFormat                                   : MPEG Audio\nFormat version                           : Version 1\nFormat profile                           : Layer 3\nMode                                     : Joint stereo\nMode extension                           : MS Stereo\nCodec ID                                 : 55\nCodec ID/Hint                            : MP3\nDuration                                 : 1h 31mn\nBit rate mode                            : Constant\nBit rate                                 : 128 Kbps\nChannel(s)                               : 2 channels\nSampling rate                            : 44.1 KHz\nCompression mode                         : Lossy\nStream size                              : 84.2 MiB (12%)\nAlignment                                : Split accross interleaves\nInterleave, duration                     : 42 ms (1.00 video frame)\nInterleave, preload duration             : 500 ms\nWriting library                          : LAME3.98\n\nPlot\nLonely and disturbed Jacob Kell loved his little sister more than anything on earth. When tragedy strikes, Jacob retaliates the only way he knows how - and anyone who crosses his path will know there is no limit to his brutal vengeance. \n &lt;a href=&quot;\nhttp://www.shotpix.com/images/07696596910895576377.png&quot; rel=&quot;nofollow&quot; target=&quot;_NEW&quot;&gt;\nhttp://www.shotpix.com/images/07696596910895576377.png&lt;/a&gt; &lt;a href=&quot;\nhttp://www.shotpix.com/images/95649257978007402869.png&quot; rel=&quot;nofollow&quot; target=&quot;_NEW&quot;&gt;\nhttp://www.shotpix.com/images/95649257978007402869.png&lt;/a&gt; &lt;a href=&quot;\nhttp://www.shotpix.com/images/10736630800389089690.png&quot; rel=&quot;nofollow&quot; target=&quot;_NEW&quot;&gt;\nhttp://www.shotpix.com/images/10736630800389089690.png&lt;/a&gt;","torrent":{"xt":"urn:btih:431c220d22348c53412134c522ce3882cab20023","amp;dn":"Jacob.2011.BRRip+XViD+juggs","amp;tr":["udp%3A%2F%2Ftracker.openbittorrent.com%3A80","udp%3A%2F%2Fopen.demonii.com%3A1337","udp%3A%2F%2Ftracker.coppersurfer.tk%3A6969","udp%3A%2F%2Fexodus.desync.com%3A6969"],"infoHash":"431c220d22348c53412134c522ce3882cab20023","infoHashBuffer":{"type":"Buffer","data":[67,28,34,13,34,52,140,83,65,33,52,197,34,206,56,130,202,178,0,35]},"announce":[],"urlList":[]}}